<svg width="100" height="100" viewBox="0 0 100 100" fill="none" xmlns="http://www.w3.org/2000/svg">
<rect width="100" height="100" rx="30" fill="#EA9924"/>
<path d="M30.2734 58.3964C37.2322 65.3535 48.1974 65.8387 55.725 59.8704L57.2935 61.4373L55.9908 62.7391L66.6273 73.3747C66.2314 74.0007 66.06 74.4827 66.2579 74.679L66.8401 75.2603C67.7867 76.2085 75.2075 68.7852 74.2609 67.8387L73.6788 67.2581C73.4825 67.0611 73.0014 67.2308 72.377 67.6267L61.7389 56.9911L60.437 58.2929L58.8694 56.7252C64.8369 49.1967 64.3524 38.2307 57.3962 31.2728C49.9066 23.7841 37.763 23.7841 30.2734 31.2728C22.783 38.764 22.7847 50.9068 30.2734 58.3964ZM32.5334 33.5344C38.7741 27.2928 48.8963 27.2928 55.1354 33.5344C61.377 39.7743 61.377 49.8965 55.1354 56.1364C48.8946 62.3788 38.7758 62.3772 32.5334 56.1364C26.2943 49.8948 26.2926 39.776 32.5334 33.5344Z" fill="white"/>
<path d="M30.1927 43.7922C30.8806 45.6197 31.9503 47.2794 33.3304 48.6608C38.724 54.0552 47.4715 54.0552 52.8676 48.6583C55.1482 46.3845 56.5587 43.3827 56.8533 40.1758C58.7216 45.1023 57.6815 50.8801 53.7147 54.8468C48.3195 60.2421 39.572 60.2421 34.1768 54.8468C31.1508 51.8234 29.825 47.744 30.1927 43.7922Z" fill="white"/>
</svg>
