<svg width="145" height="145" viewBox="0 0 145 145" fill="none" xmlns="http://www.w3.org/2000/svg">
<rect y="1" width="144" height="144" rx="10" fill="#7B61FF"/>
<path d="M0.5 144.5L0 9L2.5 4.5L6 1.5L76.349 55.5605L126.934 3.92194C133.192 -2.46696 144.049 1.94456 144.077 10.8881L144.468 134.468C144.486 140.004 140.004 144.5 134.468 144.5H0.5Z" fill="url(#paint0_linear_566_4796)" fill-opacity="0.42"/>
<path d="M45.74 138.105C44.97 138.105 44.28 137.98 43.67 137.73C43.06 137.48 42.57 137.11 42.2 136.62C41.84 136.13 41.65 135.54 41.63 134.85H44.36C44.4 135.24 44.535 135.54 44.765 135.75C44.995 135.95 45.295 136.05 45.665 136.05C46.045 136.05 46.345 135.965 46.565 135.795C46.785 135.615 46.895 135.37 46.895 135.06C46.895 134.8 46.805 134.585 46.625 134.415C46.455 134.245 46.24 134.105 45.98 133.995C45.73 133.885 45.37 133.76 44.9 133.62C44.22 133.41 43.665 133.2 43.235 132.99C42.805 132.78 42.435 132.47 42.125 132.06C41.815 131.65 41.66 131.115 41.66 130.455C41.66 129.475 42.015 128.71 42.725 128.16C43.435 127.6 44.36 127.32 45.5 127.32C46.66 127.32 47.595 127.6 48.305 128.16C49.015 128.71 49.395 129.48 49.445 130.47H46.67C46.65 130.13 46.525 129.865 46.295 129.675C46.065 129.475 45.77 129.375 45.41 129.375C45.1 129.375 44.85 129.46 44.66 129.63C44.47 129.79 44.375 130.025 44.375 130.335C44.375 130.675 44.535 130.94 44.855 131.13C45.175 131.32 45.675 131.525 46.355 131.745C47.035 131.975 47.585 132.195 48.005 132.405C48.435 132.615 48.805 132.92 49.115 133.32C49.425 133.72 49.58 134.235 49.58 134.865C49.58 135.465 49.425 136.01 49.115 136.5C48.815 136.99 48.375 137.38 47.795 137.67C47.215 137.96 46.53 138.105 45.74 138.105ZM50.6485 133.8C50.6485 132.94 50.8085 132.185 51.1285 131.535C51.4585 130.885 51.9035 130.385 52.4635 130.035C53.0235 129.685 53.6485 129.51 54.3385 129.51C54.9285 129.51 55.4435 129.63 55.8835 129.87C56.3335 130.11 56.6785 130.425 56.9185 130.815V129.63H59.4835V138H56.9185V136.815C56.6685 137.205 56.3185 137.52 55.8685 137.76C55.4285 138 54.9135 138.12 54.3235 138.12C53.6435 138.12 53.0235 137.945 52.4635 137.595C51.9035 137.235 51.4585 136.73 51.1285 136.08C50.8085 135.42 50.6485 134.66 50.6485 133.8ZM56.9185 133.815C56.9185 133.175 56.7385 132.67 56.3785 132.3C56.0285 131.93 55.5985 131.745 55.0885 131.745C54.5785 131.745 54.1435 131.93 53.7835 132.3C53.4335 132.66 53.2585 133.16 53.2585 133.8C53.2585 134.44 53.4335 134.95 53.7835 135.33C54.1435 135.7 54.5785 135.885 55.0885 135.885C55.5985 135.885 56.0285 135.7 56.3785 135.33C56.7385 134.96 56.9185 134.455 56.9185 133.815ZM65.1042 135.6L66.9192 129.63H69.6492L66.6792 138H63.5142L60.5442 129.63H63.2892L65.1042 135.6ZM72.0188 128.76C71.5688 128.76 71.1988 128.63 70.9088 128.37C70.6288 128.1 70.4888 127.77 70.4888 127.38C70.4888 126.98 70.6288 126.65 70.9088 126.39C71.1988 126.12 71.5688 125.985 72.0188 125.985C72.4588 125.985 72.8188 126.12 73.0988 126.39C73.3888 126.65 73.5338 126.98 73.5338 127.38C73.5338 127.77 73.3888 128.1 73.0988 128.37C72.8188 128.63 72.4588 128.76 72.0188 128.76ZM73.2938 129.63V138H70.7288V129.63H73.2938ZM80.2527 129.54C81.2327 129.54 82.0127 129.86 82.5927 130.5C83.1827 131.13 83.4777 132 83.4777 133.11V138H80.9277V133.455C80.9277 132.895 80.7827 132.46 80.4927 132.15C80.2027 131.84 79.8127 131.685 79.3227 131.685C78.8327 131.685 78.4427 131.84 78.1527 132.15C77.8627 132.46 77.7177 132.895 77.7177 133.455V138H75.1527V129.63H77.7177V130.74C77.9777 130.37 78.3277 130.08 78.7677 129.87C79.2077 129.65 79.7027 129.54 80.2527 129.54ZM88.4401 129.51C89.0301 129.51 89.5451 129.63 89.9851 129.87C90.4351 130.11 90.7801 130.425 91.0201 130.815V129.63H93.5851V137.985C93.5851 138.755 93.4301 139.45 93.1201 140.07C92.8201 140.7 92.3551 141.2 91.7251 141.57C91.1051 141.94 90.3301 142.125 89.4001 142.125C88.1601 142.125 87.1551 141.83 86.3851 141.24C85.6151 140.66 85.1751 139.87 85.0651 138.87H87.6001C87.6801 139.19 87.8701 139.44 88.1701 139.62C88.4701 139.81 88.8401 139.905 89.2801 139.905C89.8101 139.905 90.2301 139.75 90.5401 139.44C90.8601 139.14 91.0201 138.655 91.0201 137.985V136.8C90.7701 137.19 90.4251 137.51 89.9851 137.76C89.5451 138 89.0301 138.12 88.4401 138.12C87.7501 138.12 87.1251 137.945 86.5651 137.595C86.0051 137.235 85.5601 136.73 85.2301 136.08C84.9101 135.42 84.7501 134.66 84.7501 133.8C84.7501 132.94 84.9101 132.185 85.2301 131.535C85.5601 130.885 86.0051 130.385 86.5651 130.035C87.1251 129.685 87.7501 129.51 88.4401 129.51ZM91.0201 133.815C91.0201 133.175 90.8401 132.67 90.4801 132.3C90.1301 131.93 89.7001 131.745 89.1901 131.745C88.6801 131.745 88.2451 131.93 87.8851 132.3C87.5351 132.66 87.3601 133.16 87.3601 133.8C87.3601 134.44 87.5351 134.95 87.8851 135.33C88.2451 135.7 88.6801 135.885 89.1901 135.885C89.7001 135.885 90.1301 135.7 90.4801 135.33C90.8401 134.96 91.0201 134.455 91.0201 133.815ZM98.8457 138.12C98.1157 138.12 97.4657 137.995 96.8957 137.745C96.3257 137.495 95.8757 137.155 95.5457 136.725C95.2157 136.285 95.0307 135.795 94.9907 135.255H97.5257C97.5557 135.545 97.6907 135.78 97.9307 135.96C98.1707 136.14 98.4657 136.23 98.8157 136.23C99.1357 136.23 99.3807 136.17 99.5507 136.05C99.7307 135.92 99.8207 135.755 99.8207 135.555C99.8207 135.315 99.6957 135.14 99.4457 135.03C99.1957 134.91 98.7907 134.78 98.2307 134.64C97.6307 134.5 97.1307 134.355 96.7307 134.205C96.3307 134.045 95.9857 133.8 95.6957 133.47C95.4057 133.13 95.2607 132.675 95.2607 132.105C95.2607 131.625 95.3907 131.19 95.6507 130.8C95.9207 130.4 96.3107 130.085 96.8207 129.855C97.3407 129.625 97.9557 129.51 98.6657 129.51C99.7157 129.51 100.541 129.77 101.141 130.29C101.751 130.81 102.101 131.5 102.191 132.36H99.8207C99.7807 132.07 99.6507 131.84 99.4307 131.67C99.2207 131.5 98.9407 131.415 98.5907 131.415C98.2907 131.415 98.0607 131.475 97.9007 131.595C97.7407 131.705 97.6607 131.86 97.6607 132.06C97.6607 132.3 97.7857 132.48 98.0357 132.6C98.2957 132.72 98.6957 132.84 99.2357 132.96C99.8557 133.12 100.361 133.28 100.751 133.44C101.141 133.59 101.481 133.84 101.771 134.19C102.071 134.53 102.226 134.99 102.236 135.57C102.236 136.06 102.096 136.5 101.816 136.89C101.546 137.27 101.151 137.57 100.631 137.79C100.121 138.01 99.5257 138.12 98.8457 138.12Z" fill="white"/>
<circle cx="72" cy="73" r="35" fill="white"/>
<path d="M100.794 72.8201C99.4959 72.2813 98.311 71.4533 97.3124 70.3871C95.0303 67.574 93.1034 64.4299 91.5848 61.0413L97.4864 50.8265C97.6285 50.5932 97.7174 50.3252 97.7454 50.0454C97.7734 49.7656 97.7397 49.4825 97.6472 49.2203C97.5548 48.9582 97.4062 48.7249 97.2145 48.5405C97.0227 48.3561 96.7934 48.2261 96.5464 48.1618C93.5108 47.7157 90.4231 48.1964 87.6155 49.5521C85.6295 50.5179 83.7911 51.8208 82.1665 53.414C79.0502 51.7151 75.6935 50.6243 72.2434 50.1893C60.4052 48.9728 49.0371 57.4304 47.7663 69.2092L47.5226 69.074C46.9132 68.7758 46.3663 68.3402 45.9168 67.7951C45.4672 67.2499 45.1248 66.607 44.9112 65.9073C44.7721 65.4144 44.7235 64.8955 44.7684 64.3814C44.8132 63.8673 44.9506 63.3684 45.1723 62.9143C45.3684 62.5322 45.6503 62.2129 45.9906 61.9874C46.202 61.8454 46.3862 61.6586 46.5326 61.4376C46.679 61.2167 46.7847 60.9659 46.8437 60.6997C46.9027 60.4334 46.9138 60.1568 46.8765 59.8858C46.8391 59.6147 46.754 59.3545 46.626 59.1199C46.498 58.8854 46.3295 58.6811 46.1303 58.5187C45.9311 58.3564 45.705 58.2391 45.465 58.1737C45.2249 58.1082 44.9756 58.0959 44.7312 58.1373C44.4868 58.1787 44.2522 58.2731 44.0407 58.4152C43.1515 59.0017 42.4139 59.8331 41.8994 60.8288C41.4292 61.7752 41.136 62.8171 41.0373 63.892C40.9386 64.967 41.0364 66.0531 41.3249 67.0851C41.6769 68.3371 42.2551 69.4965 43.0244 70.4925C43.7936 71.4884 44.7377 72.3001 45.7991 72.878L47.54 73.9207C47.8182 78.8342 49.0033 83.632 51.0218 88.0167C52.4132 91.3262 54.1674 94.4328 56.2445 97.266C56.4102 97.4987 56.6221 97.686 56.8636 97.8132C57.1051 97.9405 57.3698 98.0043 57.6372 97.9998H63.9219C64.0658 97.9799 64.2033 97.9219 64.3228 97.8307C64.4423 97.7395 64.5403 97.6179 64.6085 97.4759C64.6768 97.334 64.7133 97.1759 64.715 97.015C64.7167 96.8542 64.6835 96.6952 64.6182 96.5516L64.2352 95.0454C64.0057 94.2983 63.8139 93.5376 63.6607 92.7669C65.2449 93.0758 67.2818 93.3655 68.6571 93.5006C70.4649 93.657 72.2809 93.657 74.0887 93.5006C74.7677 94.8523 75.464 96.0688 76.0908 97.0729C76.2388 97.3164 76.4384 97.5159 76.6721 97.6539C76.9058 97.7919 77.1665 97.8643 77.4313 97.8646H82.8455C83.0227 97.8621 83.1968 97.8134 83.354 97.7225C83.5111 97.6316 83.6468 97.5011 83.7501 97.3414C83.8534 97.1817 83.9215 96.9973 83.9488 96.8031C83.9761 96.6089 83.9619 96.4103 83.9074 96.2233C83.507 94.7944 82.9847 92.8441 82.6714 91.6469C84.9718 90.8347 87.1665 89.6922 89.1997 88.2484C89.4783 88.036 89.7568 87.7464 90.0354 87.4954C88.5789 87.0016 87.1682 86.355 85.8224 85.5644C85.4946 85.3749 85.2481 85.0488 85.137 84.6577C85.026 84.2666 85.0597 83.8426 85.2305 83.479C85.4013 83.1154 85.6954 82.8419 86.048 82.7188C86.4006 82.5957 86.7828 82.633 87.1107 82.8224C88.8535 83.8241 90.7184 84.5396 92.6467 84.9465C94.1909 85.1978 95.7541 85.2755 97.3124 85.1782C97.6581 85.1626 97.9919 85.033 98.271 84.806C98.55 84.579 98.7618 84.2649 98.8792 83.9038L101.891 75.3303C101.973 75.086 102.009 74.8259 101.998 74.5655C101.987 74.3052 101.928 74.05 101.826 73.8155C101.723 73.5809 101.579 73.3718 101.402 73.2008C101.224 73.0297 101.018 72.9002 100.794 72.8201ZM63.8696 58.7627C63.7021 58.8291 63.5252 58.8618 63.3474 58.8593C63.0051 58.8533 62.6754 58.7159 62.4142 58.4705C62.1531 58.2251 61.9767 57.8869 61.9151 57.5135C61.8535 57.1401 61.9105 56.7545 62.0765 56.4225C62.2424 56.0905 62.5069 55.8325 62.8251 55.6925C66.5456 54.1585 70.5753 53.7911 74.4717 54.6305C74.6724 54.6564 74.8662 54.7275 75.0412 54.8397C75.2161 54.9518 75.3685 55.1025 75.4889 55.2824C75.6094 55.4623 75.6953 55.6677 75.7415 55.8859C75.7876 56.1041 75.793 56.3304 75.7573 56.551C75.7216 56.7716 75.6455 56.9817 75.5338 57.1684C75.422 57.3552 75.277 57.5145 75.1076 57.6367C74.9383 57.7589 74.7481 57.8413 74.5489 57.8789C74.3497 57.9165 74.1457 57.9084 73.9494 57.8552C70.5781 57.126 67.0908 57.4399 63.8696 58.7627ZM85.6657 70.5802C85.1699 70.5802 84.6852 70.4171 84.273 70.1116C83.8607 69.806 83.5394 69.3718 83.3496 68.8637C83.1599 68.3556 83.1103 67.7965 83.207 67.2571C83.3037 66.7178 83.5425 66.2223 83.8931 65.8334C84.2437 65.4446 84.6904 65.1797 85.1766 65.0725C85.6629 64.9652 86.167 65.0202 86.6251 65.2307C87.0831 65.4411 87.4747 65.7975 87.7501 66.2548C88.0256 66.7121 88.1726 67.2497 88.1726 67.7996C88.1749 68.1648 88.1123 68.5268 87.9885 68.8652C87.8646 69.2035 87.6819 69.5114 87.4507 69.7714C87.2195 70.0314 86.9444 70.2384 86.6412 70.3805C86.3379 70.5225 86.0123 70.597 85.6831 70.5995L85.6657 70.5802Z" fill="#003E06"/>
<defs>
<linearGradient id="paint0_linear_566_4796" x1="-172.393" y1="22.6663" x2="-125.14" y2="182.141" gradientUnits="userSpaceOnUse">
<stop stop-color="white"/>
<stop offset="1" stop-color="white" stop-opacity="0"/>
</linearGradient>
</defs>
</svg>
